<svg fill="#EC5D57" xmlns="http://www.w3.org/2000/svg" xmlns:xlink="http://www.w3.org/1999/xlink" version="1.1" x="0px" y="0px" viewBox="0 0 90 90" enable-background="new 0 0 90 90" xml:space="preserve"><path fill="#EC5D57" d="M87.7,19.1H7.4c-0.4,0-0.8,0.3-0.8,0.8v7.7h-5c-0.4,0-0.8,0.3-0.8,0.8v13.1c0,0.4,0.3,0.8,0.8,0.8h5V54h-5  c-0.4,0-0.8,0.3-0.8,0.8v6.9c0,0.4,0.3,0.8,0.8,0.8h5v6.8c0,0.4,0.3,0.8,0.8,0.8h80.3c0.4,0,0.8-0.3,0.8-0.8V19.9  C88.4,19.5,88.1,19.1,87.7,19.1z M86.9,68.4H8.2v-6h5.7c0.4,0,0.8-0.3,0.8-0.8v-6.9c0-0.4-0.3-0.8-0.8-0.8H8.2V42.2h5.7  c0.4,0,0.8-0.3,0.8-0.8V28.3c0-0.4-0.3-0.8-0.8-0.8H8.2v-6.9h78.8V68.4z"></path><g><rect x="43.3" y="48.3" fill="#EC5D57" width="26.2" height="6.9"></rect><path fill="#EC5D57" d="M69.5,55.9H43.3c-0.4,0-0.8-0.3-0.8-0.8v-6.9c0-0.4,0.3-0.8,0.8-0.8h26.2c0.4,0,0.8,0.3,0.8,0.8v6.9   C70.2,55.6,69.9,55.9,69.5,55.9z M44,54.4h24.7V49H44V54.4z"></path></g><g><rect x="21.6" y="24.8" fill="#EC5D57" width="58.4" height="1.5"></rect></g><g><rect x="20.1" y="63.4" fill="#EC5D57" width="59.9" height="1.5"></rect></g><g><g><path fill="#EC5D57" d="M27.3,55.8c-3.3,0-5.9-2.7-5.9-5.9c0-3.3,4.2-5.9,5.9-5.9s5.9,2.6,5.9,5.9C33.3,53.2,30.6,55.8,27.3,55.8z     M27.3,45.5c-0.9,0-4.4,2-4.4,4.4c0,2.4,2,4.4,4.4,4.4s4.4-2,4.4-4.4C31.8,47.5,28.2,45.5,27.3,45.5z"></path></g><g><path fill="#EC5D57" d="M27.3,45c-1.7,0-5.9-2.6-5.9-5.9c0-3.3,2.6-5.9,5.9-5.9s5.9,2.7,5.9,5.9C33.3,42.4,29,45,27.3,45z     M27.3,34.7c-2.4,0-4.4,2-4.4,4.4c0,2.4,3.5,4.4,4.4,4.4s4.4-2,4.4-4.4C31.8,36.7,29.8,34.7,27.3,34.7z"></path></g><g><g><path fill="#EC5D57" d="M28.8,39.4h-2.9c-0.3,0-0.5-0.2-0.5-0.5s0.2-0.5,0.5-0.5h2.9c0.3,0,0.5,0.2,0.5,0.5S29.1,39.4,28.8,39.4z     "></path></g><g><path fill="#EC5D57" d="M27.3,40.8c-0.3,0-0.5-0.2-0.5-0.5v-2.9c0-0.3,0.2-0.5,0.5-0.5s0.5,0.2,0.5,0.5v2.9     C27.8,40.6,27.6,40.8,27.3,40.8z"></path></g></g><g><path fill="#EC5D57" d="M27.3,51.9c-0.3,0-0.5-0.2-0.5-0.5v-2.9c0-0.3,0.2-0.5,0.5-0.5s0.5,0.2,0.5,0.5v2.9    C27.8,51.7,27.6,51.9,27.3,51.9z"></path></g></g></svg>