<svg fill="#EC5D57" xmlns="http://www.w3.org/2000/svg" viewBox="0 0 56 68" x="0px" y="0px"><path fill="#EC5D57" fill-rule="evenodd" d="M210,844 C213.865993,844 217,840.865993 217,837 C217,833.134007 213.865993,830 210,830 C206.134007,830 203,833.134007 203,837 C203,840.865993 206.134007,844 210,844 Z M191,839 C192.104569,839 193,838.104569 193,837 C193,835.895431 192.104569,835 191,835 C189.895431,835 189,835.895431 189,837 C189,838.104569 189.895431,839 191,839 Z M184,839 C185.104569,839 186,838.104569 186,837 C186,835.895431 185.104569,835 184,835 C182.895431,835 182,835.895431 182,837 C182,838.104569 182.895431,839 184,839 Z M198,839 C199.104569,839 200,838.104569 200,837 C200,835.895431 199.104569,835 198,835 C196.895431,835 196,835.895431 196,837 C196,838.104569 196.895431,839 198,839 Z M229,839 C230.104569,839 231,838.104569 231,837 C231,835.895431 230.104569,835 229,835 C227.895431,835 227,835.895431 227,837 C227,838.104569 227.895431,839 229,839 Z M222,839 C223.104569,839 224,838.104569 224,837 C224,835.895431 223.104569,835 222,835 C220.895431,835 220,835.895431 220,837 C220,838.104569 220.895431,839 222,839 Z M210,827 C211.104569,827 212,826.104569 212,825 C212,823.895431 211.104569,823 210,823 C208.895431,823 208,823.895431 208,825 C208,826.104569 208.895431,827 210,827 Z M210,820 C211.104569,820 212,819.104569 212,818 C212,816.895431 211.104569,816 210,816 C208.895431,816 208,816.895431 208,818 C208,819.104569 208.895431,820 210,820 Z M219.150287,782.881209 C216.2137,778.648519 211.348016,776 206,776 C199.826778,776 194.401293,779.516883 191.739736,784.733444 C190.967672,786.246662 190.503975,788.090692 190.503975,788.090692 C185.650369,788.895471 182,793.005265 182,798 C182,803.522847 186.477153,808 192,808 L231,808 C234.865993,808 238,804.865993 238,801 C238,798.118242 236.258623,795.643205 233.770739,794.569756 C232.921027,794.203131 232,794.050003 232,794.050003 C232,788.477153 227.522847,784 222,784 C221.316119,784 219.982575,784.203977 219.982575,784.203977 C219.982575,784.203977 219.702341,783.67692 219.150287,782.881209 Z M236,839 C237.104569,839 238,838.104569 238,837 C238,835.895431 237.104569,835 236,835 C234.895431,835 234,835.895431 234,837 C234,838.104569 234.895431,839 236,839 Z M210,840 C208.343146,840 207,838.656854 207,837 C207,835.343146 208.343146,834 210,834 C211.656854,834 213,835.343146 213,837 C213,838.656854 211.656854,840 210,840 Z M216.986921,787.19514 C217.327932,788.334268 218.581562,788.926048 219.67777,788.465365 C220.405479,788.159544 221.18985,788 222,788 C225.313708,788 228,790.686292 228,794 C228,794.220121 227.988312,794.455136 227.964822,794.72413 C227.941057,794.996282 227.92008,795.177145 227.845663,795.778291 C227.838358,795.837343 227.838358,795.837343 227.831002,795.897112 C227.660546,797.284511 228.929607,798.414344 230.287971,798.084529 C230.518274,798.028611 230.756458,798 231,798 C232.656854,798 234,799.343146 234,801 C234,802.656854 232.656854,804 231,804 L192,804 C188.686292,804 186,801.313708 186,798 C186,794.671431 188.706542,791.987416 192.17186,791.948254 C193.155563,791.937137 193.985108,791.212287 194.128038,790.238959 C194.986786,784.391048 200.027747,780 206,780 C210.766104,780 215.020455,782.803339 216.945859,787.073432 C216.962227,787.117641 216.980379,787.173284 216.986921,787.19514 Z" transform="translate(-182 -776)"></path></svg>