<svg fill="#70C041" xmlns="http://www.w3.org/2000/svg" viewBox="0 0 68 68" x="0px" y="0px"><path fill="#70C041" fill-rule="evenodd" d="M92,830.289879 C94.2644432,830.96381 96.0486786,832.75274 96.716042,835.020004 C96.8087977,835.00682 96.9036024,835 97,835 L122,835 C123.104569,835 124,835.895431 124,837 C124,838.104569 123.104569,839 122,839 L97,839 C96.9036024,839 96.8087977,838.99318 96.716042,838.979996 C95.8619154,841.881759 93.1783285,844 90,844 C86.8216715,844 84.1380846,841.881759 83.283958,838.979996 C83.1912023,838.99318 83.0963976,839 83,839 L58,839 C56.8954305,839 56,838.104569 56,837 C56,835.895431 56.8954305,835 58,835 L83,835 C83.0963976,835 83.1912023,835.00682 83.283958,835.020004 C83.9513214,832.75274 85.7355568,830.96381 88,830.289879 L88,818 C88,816.895431 88.8954305,816 90,816 C91.1045695,816 92,816.895431 92,818 L92,830.289879 L92,830.289879 Z M99.1502865,782.881209 C96.2136999,778.648519 91.3480164,776 86,776 C79.8267785,776 74.401293,779.516883 71.7397356,784.733444 C70.9676724,786.246662 70.5039747,788.090692 70.5039747,788.090692 C65.6503688,788.895471 62,793.005265 62,798 C62,803.522847 66.4771525,808 72,808 L111,808 C114.865993,808 118,804.865993 118,801 C118,798.118242 116.258623,795.643205 113.770739,794.569756 C112.921027,794.203131 112,794.050003 112,794.050003 C112,788.477153 107.522847,784 102,784 C101.316119,784 99.9825746,784.203977 99.9825746,784.203977 C99.9825746,784.203977 99.7023411,783.67692 99.1502865,782.881209 Z M90,840 C91.6568542,840 93,838.656854 93,837 C93,835.343146 91.6568542,834 90,834 C88.3431458,834 87,835.343146 87,837 C87,838.656854 88.3431458,840 90,840 Z M96.9869213,787.19514 C97.3279322,788.334268 98.5815625,788.926048 99.6777702,788.465365 C100.405479,788.159544 101.18985,788 102,788 C105.313708,788 108,790.686292 108,794 C108,794.220121 107.988312,794.455136 107.964822,794.72413 C107.941057,794.996282 107.92008,795.177145 107.845663,795.778291 C107.838358,795.837343 107.838358,795.837343 107.831002,795.897112 C107.660546,797.284511 108.929607,798.414344 110.287971,798.084529 C110.518274,798.028611 110.756458,798 111,798 C112.656854,798 114,799.343146 114,801 C114,802.656854 112.656854,804 111,804 L72,804 C68.6862915,804 66,801.313708 66,798 C66,794.671431 68.7065422,791.987416 72.1718601,791.948254 C73.155563,791.937137 73.9851079,791.212287 74.128038,790.238959 C74.9867855,784.391048 80.0277473,780 86,780 C90.7661042,780 95.0204551,782.803339 96.9458591,787.073432 C96.9622266,787.117641 96.9803785,787.173284 96.9869213,787.19514 Z" transform="translate(-56 -776)"></path></svg>