<svg fill="#70C041" xmlns="http://www.w3.org/2000/svg" xmlns:xlink="http://www.w3.org/1999/xlink" version="1.1" x="0px" y="0px" viewBox="0 0 100 100" enable-background="new 0 0 100 100" xml:space="preserve"><g><path d="M14,83v5.572C14,92.123,16.93,95,20.545,95h58.91C83.07,95,86,92.123,86,88.572V83h-6v-6h6v-6h-6v-6h6v-6h-6v-6h6v-3   c0-3.551-2.385-6-6-6h-3c0.012-2.889,0-5.408,0-9C77,20.457,66.477,5,50,5C32.879,5,23,20.457,23,35c0,3.595,0,6.111,0,9h-3   c-3.615,0-6,2.449-6,6v3h6v6h-6v6h6v6h-6v6h6v6H14z M41,83l5.927-14.499c-2.057-1.084-3.472-3.19-3.472-5.643   c0-3.551,2.93-6.431,6.545-6.431s6.545,2.88,6.545,6.431c0,2.452-1.415,4.559-3.472,5.643L59,83H41z M32,35c0-9.158,6.029-21,18-21   c11.918,0,18,11.842,18,21c0,3.592,0.079,6.111,0,9H32C32.05,40.915,32,38.319,32,35z"></path></g></svg>