<svg fill="#51A7F9" xmlns="http://www.w3.org/2000/svg" xmlns:xlink="http://www.w3.org/1999/xlink" version="1.1" x="0px" y="0px" viewBox="0 0 100 100" style="enable-background:new 0 0 100 100;" xml:space="preserve"><g><g><path d="M55.3,53.1l2.1-0.3c0.2,0,0.4-0.2,0.4-0.5v-3.7c0-0.2-0.2-0.4-0.4-0.5L55.3,48c-0.3,0-0.5,0.2-0.5,0.5v4.2    C54.7,52.9,55,53.1,55.3,53.1z"></path></g><g><g><path d="M10.8,77.9h78.6c3.2,0,5.8-2.6,5.8-5.8V28.9c0-3.2-2.6-5.8-5.8-5.8H10.8c-3.2,0-5.8,2.6-5.8,5.8v43.2     C5,75.3,7.6,77.9,10.8,77.9z M51.7,44.8c0-1.4,1.3-2.5,2.7-2.3l7.5,1.1c1.2,0.2,2,1.2,2,2.3v1.9H81l2.6,2.6L81,53.1h-2.1     l-2.2,1.6l-2.2-1.6l-2.2,1.6l-2.2-1.6L68,54.7l-2.2-1.6h-1.9v2c0,1.2-0.9,2.2-2,2.3l-7.5,1.1c-1.4,0.2-2.7-0.9-2.7-2.3V44.8z      M36.2,46c0.7-0.7,1.7-0.7,2.4,0c0.3,0.3,0.5,0.8,0.5,1.2S39,48,38.6,48.4c-1.2,1.2-1.2,3.1,0,4.3c0.7,0.7,0.7,1.7,0,2.4     c-0.7,0.7-1.7,0.7-2.4,0C33.7,52.6,33.7,48.5,36.2,46z M33.6,41c0.3,0.3,0.5,0.8,0.5,1.2S34,43,33.6,43.4     c-3.9,3.9-3.9,10.4,0,14.3c0.7,0.7,0.7,1.7,0,2.4c-0.7,0.7-1.7,0.7-2.4,0c-5.3-5.3-5.3-13.9,0-19.1C31.9,40.3,33,40.3,33.6,41z      M26.2,35.9c0.7-0.7,1.7-0.7,2.4,0c0.3,0.3,0.5,0.8,0.5,1.2s-0.2,0.9-0.5,1.2c-6.7,6.7-6.7,17.6,0,24.3c0.7,0.7,0.7,1.7,0,2.4     c-0.7,0.7-1.7,0.7-2.4,0C18.2,57.1,18.2,44,26.2,35.9z"></path></g></g></g></svg>