<svg fill="#EC5D57" xmlns="http://www.w3.org/2000/svg" viewBox="0 0 56 68" x="0px" y="0px"><path fill="#EC5D57" fill-rule="evenodd" d="M210,484 C213.865993,484 217,480.865993 217,477 C217,473.134007 213.865993,470 210,470 C206.134007,470 203,473.134007 203,477 C203,480.865993 206.134007,484 210,484 Z M191,479 C192.104569,479 193,478.104569 193,477 C193,475.895431 192.104569,475 191,475 C189.895431,475 189,475.895431 189,477 C189,478.104569 189.895431,479 191,479 Z M184,479 C185.104569,479 186,478.104569 186,477 C186,475.895431 185.104569,475 184,475 C182.895431,475 182,475.895431 182,477 C182,478.104569 182.895431,479 184,479 Z M198,479 C199.104569,479 200,478.104569 200,477 C200,475.895431 199.104569,475 198,475 C196.895431,475 196,475.895431 196,477 C196,478.104569 196.895431,479 198,479 Z M229,479 C230.104569,479 231,478.104569 231,477 C231,475.895431 230.104569,475 229,475 C227.895431,475 227,475.895431 227,477 C227,478.104569 227.895431,479 229,479 Z M222,479 C223.104569,479 224,478.104569 224,477 C224,475.895431 223.104569,475 222,475 C220.895431,475 220,475.895431 220,477 C220,478.104569 220.895431,479 222,479 Z M210,467 C211.104569,467 212,466.104569 212,465 C212,463.895431 211.104569,463 210,463 C208.895431,463 208,463.895431 208,465 C208,466.104569 208.895431,467 210,467 Z M236,479 C237.104569,479 238,478.104569 238,477 C238,475.895431 237.104569,475 236,475 C234.895431,475 234,475.895431 234,477 C234,478.104569 234.895431,479 236,479 Z M210,480 C208.343146,480 207,478.656854 207,477 C207,475.343146 208.343146,474 210,474 C211.656854,474 213,475.343146 213,477 C213,478.656854 211.656854,480 210,480 Z M192,416 C190.895431,416 190,416.895431 190,418 L190,454 C190,455.104569 190.895431,456 192,456 L228,456 C229.104569,456 230,455.104569 230,454 L230,418 C230,416.895431 229.104569,416 228,416 L192,416 Z M226,420 L226,428 L194,428 L194,420 L226,420 Z M226,432 L226,440 L194,440 L194,432 L226,432 Z M226,444 L226,452 L194,452 L194,444 L226,444 Z M222,426 C223.104569,426 224,425.104569 224,424 C224,422.895431 223.104569,422 222,422 C220.895431,422 220,422.895431 220,424 C220,425.104569 220.895431,426 222,426 Z M222,438 C223.104569,438 224,437.104569 224,436 C224,434.895431 223.104569,434 222,434 C220.895431,434 220,434.895431 220,436 C220,437.104569 220.895431,438 222,438 Z M222,450 C223.104569,450 224,449.104569 224,448 C224,446.895431 223.104569,446 222,446 C220.895431,446 220,446.895431 220,448 C220,449.104569 220.895431,450 222,450 Z" transform="translate(-182 -416)"></path></svg>