<svg fill="#70C041" xmlns="http://www.w3.org/2000/svg" viewBox="0 0 68 68" x="0px" y="0px"><path fill="#70C041" fill-rule="evenodd" d="M72,416 C70.8954305,416 70,416.895431 70,418 L70,454 C70,455.104569 70.8954305,456 72,456 L108,456 C109.104569,456 110,455.104569 110,454 L110,418 C110,416.895431 109.104569,416 108,416 L72,416 Z M106,420 L106,428 L74,428 L74,420 L106,420 Z M106,432 L106,440 L74,440 L74,432 L106,432 Z M106,444 L106,452 L74,452 L74,444 L106,444 Z M102,426 C103.104569,426 104,425.104569 104,424 C104,422.895431 103.104569,422 102,422 C100.895431,422 100,422.895431 100,424 C100,425.104569 100.895431,426 102,426 Z M102,438 C103.104569,438 104,437.104569 104,436 C104,434.895431 103.104569,434 102,434 C100.895431,434 100,434.895431 100,436 C100,437.104569 100.895431,438 102,438 Z M102,450 C103.104569,450 104,449.104569 104,448 C104,446.895431 103.104569,446 102,446 C100.895431,446 100,446.895431 100,448 C100,449.104569 100.895431,450 102,450 Z M92,470.289879 C94.2644432,470.96381 96.0486786,472.75274 96.716042,475.020004 C96.8087977,475.00682 96.9036024,475 97,475 L122,475 C123.104569,475 124,475.895431 124,477 C124,478.104569 123.104569,479 122,479 L97,479 C96.9036024,479 96.8087977,478.99318 96.716042,478.979996 C95.8619154,481.881759 93.1783285,484 90,484 C86.8216715,484 84.1380846,481.881759 83.283958,478.979996 C83.1912023,478.99318 83.0963976,479 83,479 L58,479 C56.8954305,479 56,478.104569 56,477 C56,475.895431 56.8954305,475 58,475 L83,475 C83.0963976,475 83.1912023,475.00682 83.283958,475.020004 C83.9513214,472.75274 85.7355568,470.96381 88,470.289879 L88,461 C88,459.895431 88.8954305,459 90,459 C91.1045695,459 92,459.895431 92,461 L92,470.289879 L92,470.289879 Z M90,480 C91.6568542,480 93,478.656854 93,477 C93,475.343146 91.6568542,474 90,474 C88.3431458,474 87,475.343146 87,477 C87,478.656854 88.3431458,480 90,480 Z" transform="translate(-56 -416)"></path></svg>