<svg fill="#EC5D57" xmlns="http://www.w3.org/2000/svg" xmlns:xlink="http://www.w3.org/1999/xlink" version="1.1" x="0px" y="0px" viewBox="0 0 100 100" enable-background="new 0 0 100 100" xml:space="preserve"><g><path d="M80,44h-3h-9H32c0.05-3.088,0-5.681,0-9c0-9.158,6.029-21,18-21c10.649,0,16.634,9.453,17.789,18h9.053   C75.518,18.409,65.349,5,50,5C32.879,5,23,20.457,23,35c0,3.595,0,6.111,0,9h-3c-3.615,0-6,2.449-6,6v3h6v6h-6v6h6v6h-6v6h6v6h-6   v5.572C14,92.123,16.93,95,20.545,95h58.91C83.07,95,86,92.123,86,88.572V83h-6v-6h6v-6h-6v-6h6v-6h-6v-6h6v-3   C86,46.449,83.615,44,80,44z M41,83l5.927-14.499c-2.057-1.084-3.472-3.19-3.472-5.643c0-3.551,2.93-6.431,6.545-6.431   s6.545,2.88,6.545,6.431c0,2.452-1.415,4.559-3.472,5.643L59,83H41z"></path></g></svg>